<mxfile host="app.diagrams.net" modified="2021-07-21T19:46:29.334Z" agent="5.0 (X11)" etag="H6ET8sDTm3PfGrkquVfA" version="14.9.1" type="github">
  <diagram id="gx4LN6bsJ0upEz2Kghdg" name="Page-1">
    <mxGraphModel dx="1673" dy="888" grid="1" gridSize="10" guides="1" tooltips="1" connect="1" arrows="1" fold="1" page="1" pageScale="1" pageWidth="1169" pageHeight="827" math="0" shadow="0">
      <root>
        <mxCell id="0" />
        <mxCell id="1" parent="0" />
        <mxCell id="paTJHKrVfdt6l4FZ6ix--1" value="" style="whiteSpace=wrap;html=1;aspect=fixed;" parent="1" vertex="1">
          <mxGeometry x="80" y="40" width="80" height="80" as="geometry" />
        </mxCell>
        <mxCell id="paTJHKrVfdt6l4FZ6ix--2" value="" style="whiteSpace=wrap;html=1;aspect=fixed;" parent="1" vertex="1">
          <mxGeometry x="320" y="40" width="80" height="80" as="geometry" />
        </mxCell>
        <mxCell id="paTJHKrVfdt6l4FZ6ix--3" value="" style="whiteSpace=wrap;html=1;aspect=fixed;" parent="1" vertex="1">
          <mxGeometry x="480" y="40" width="80" height="80" as="geometry" />
        </mxCell>
        <mxCell id="paTJHKrVfdt6l4FZ6ix--4" value="" style="whiteSpace=wrap;html=1;aspect=fixed;" parent="1" vertex="1">
          <mxGeometry x="720" y="40" width="80" height="80" as="geometry" />
        </mxCell>
        <mxCell id="paTJHKrVfdt6l4FZ6ix--5" value="" style="whiteSpace=wrap;html=1;aspect=fixed;" parent="1" vertex="1">
          <mxGeometry x="880" y="40" width="80" height="80" as="geometry" />
        </mxCell>
        <mxCell id="paTJHKrVfdt6l4FZ6ix--6" value="" style="verticalLabelPosition=bottom;verticalAlign=top;html=1;shape=mxgraph.flowchart.or;" parent="1" vertex="1">
          <mxGeometry x="200" y="45" width="70" height="70" as="geometry" />
        </mxCell>
        <mxCell id="paTJHKrVfdt6l4FZ6ix--7" value="" style="verticalLabelPosition=bottom;verticalAlign=top;html=1;shape=mxgraph.flowchart.or;" parent="1" vertex="1">
          <mxGeometry x="600" y="45" width="70" height="70" as="geometry" />
        </mxCell>
        <mxCell id="paTJHKrVfdt6l4FZ6ix--8" value="" style="whiteSpace=wrap;html=1;aspect=fixed;" parent="1" vertex="1">
          <mxGeometry x="735" y="150" width="50" height="50" as="geometry" />
        </mxCell>
        <mxCell id="paTJHKrVfdt6l4FZ6ix--9" value="" style="whiteSpace=wrap;html=1;aspect=fixed;" parent="1" vertex="1">
          <mxGeometry x="160" y="240" width="80" height="80" as="geometry" />
        </mxCell>
        <mxCell id="paTJHKrVfdt6l4FZ6ix--10" value="" style="whiteSpace=wrap;html=1;aspect=fixed;" parent="1" vertex="1">
          <mxGeometry x="320" y="240" width="80" height="80" as="geometry" />
        </mxCell>
        <mxCell id="paTJHKrVfdt6l4FZ6ix--11" value="" style="whiteSpace=wrap;html=1;aspect=fixed;" parent="1" vertex="1">
          <mxGeometry x="480" y="240" width="80" height="80" as="geometry" />
        </mxCell>
        <mxCell id="paTJHKrVfdt6l4FZ6ix--12" value="" style="whiteSpace=wrap;html=1;aspect=fixed;" parent="1" vertex="1">
          <mxGeometry x="720" y="240" width="80" height="80" as="geometry" />
        </mxCell>
        <mxCell id="paTJHKrVfdt6l4FZ6ix--13" value="" style="whiteSpace=wrap;html=1;aspect=fixed;" parent="1" vertex="1">
          <mxGeometry x="880" y="240" width="80" height="80" as="geometry" />
        </mxCell>
        <mxCell id="paTJHKrVfdt6l4FZ6ix--15" value="" style="verticalLabelPosition=bottom;verticalAlign=top;html=1;shape=mxgraph.flowchart.or;" parent="1" vertex="1">
          <mxGeometry x="600" y="245" width="70" height="70" as="geometry" />
        </mxCell>
        <mxCell id="paTJHKrVfdt6l4FZ6ix--16" value="" style="whiteSpace=wrap;html=1;aspect=fixed;" parent="1" vertex="1">
          <mxGeometry x="320" y="360" width="80" height="80" as="geometry" />
        </mxCell>
        <mxCell id="paTJHKrVfdt6l4FZ6ix--17" value="" style="whiteSpace=wrap;html=1;aspect=fixed;" parent="1" vertex="1">
          <mxGeometry x="480" y="360" width="80" height="80" as="geometry" />
        </mxCell>
        <mxCell id="paTJHKrVfdt6l4FZ6ix--18" value="" style="whiteSpace=wrap;html=1;aspect=fixed;" parent="1" vertex="1">
          <mxGeometry x="80" y="580.59" width="80" height="80" as="geometry" />
        </mxCell>
        <mxCell id="paTJHKrVfdt6l4FZ6ix--19" value="" style="whiteSpace=wrap;html=1;aspect=fixed;" parent="1" vertex="1">
          <mxGeometry x="240" y="580.59" width="80" height="80" as="geometry" />
        </mxCell>
        <mxCell id="paTJHKrVfdt6l4FZ6ix--20" value="" style="whiteSpace=wrap;html=1;aspect=fixed;" parent="1" vertex="1">
          <mxGeometry x="400" y="580.59" width="80" height="80" as="geometry" />
        </mxCell>
        <mxCell id="paTJHKrVfdt6l4FZ6ix--21" value="" style="whiteSpace=wrap;html=1;aspect=fixed;" parent="1" vertex="1">
          <mxGeometry x="80" y="720" width="80" height="80" as="geometry" />
        </mxCell>
        <mxCell id="paTJHKrVfdt6l4FZ6ix--22" value="" style="whiteSpace=wrap;html=1;aspect=fixed;" parent="1" vertex="1">
          <mxGeometry x="600" y="500.59" width="80" height="80" as="geometry" />
        </mxCell>
        <mxCell id="paTJHKrVfdt6l4FZ6ix--23" value="" style="whiteSpace=wrap;html=1;aspect=fixed;" parent="1" vertex="1">
          <mxGeometry x="600" y="660.59" width="80" height="80" as="geometry" />
        </mxCell>
        <mxCell id="paTJHKrVfdt6l4FZ6ix--24" value="" style="verticalLabelPosition=bottom;verticalAlign=top;html=1;shape=mxgraph.flowchart.or;" parent="1" vertex="1">
          <mxGeometry x="720" y="665.59" width="70" height="70" as="geometry" />
        </mxCell>
        <mxCell id="paTJHKrVfdt6l4FZ6ix--25" value="" style="endArrow=none;html=1;" parent="1" edge="1">
          <mxGeometry width="50" height="50" relative="1" as="geometry">
            <mxPoint x="40" y="760" as="sourcePoint" />
            <mxPoint x="40" y="20" as="targetPoint" />
          </mxGeometry>
        </mxCell>
        <mxCell id="paTJHKrVfdt6l4FZ6ix--26" value="`" style="endArrow=classic;html=1;entryX=0;entryY=0.5;entryDx=0;entryDy=0;" parent="1" target="paTJHKrVfdt6l4FZ6ix--1" edge="1">
          <mxGeometry width="50" height="50" relative="1" as="geometry">
            <mxPoint x="40" y="80" as="sourcePoint" />
            <mxPoint x="90" y="30" as="targetPoint" />
          </mxGeometry>
        </mxCell>
        <mxCell id="paTJHKrVfdt6l4FZ6ix--27" value="`" style="endArrow=classic;html=1;entryX=0;entryY=0.5;entryDx=0;entryDy=0;" parent="1" edge="1">
          <mxGeometry width="50" height="50" relative="1" as="geometry">
            <mxPoint x="40" y="610" as="sourcePoint" />
            <mxPoint x="80" y="610" as="targetPoint" />
          </mxGeometry>
        </mxCell>
        <mxCell id="paTJHKrVfdt6l4FZ6ix--28" value="`" style="endArrow=classic;html=1;entryX=0;entryY=0.5;entryDx=0;entryDy=0;" parent="1" edge="1">
          <mxGeometry width="50" height="50" relative="1" as="geometry">
            <mxPoint x="40" y="759.41" as="sourcePoint" />
            <mxPoint x="80" y="759.41" as="targetPoint" />
          </mxGeometry>
        </mxCell>
        <mxCell id="paTJHKrVfdt6l4FZ6ix--29" value="`" style="endArrow=classic;html=1;entryX=0;entryY=0.5;entryDx=0;entryDy=0;" parent="1" edge="1">
          <mxGeometry width="50" height="50" relative="1" as="geometry">
            <mxPoint x="160" y="79.41" as="sourcePoint" />
            <mxPoint x="200" y="79.41" as="targetPoint" />
          </mxGeometry>
        </mxCell>
        <mxCell id="paTJHKrVfdt6l4FZ6ix--30" value="`" style="endArrow=classic;html=1;entryX=0;entryY=0.5;entryDx=0;entryDy=0;" parent="1" edge="1">
          <mxGeometry width="50" height="50" relative="1" as="geometry">
            <mxPoint x="560" y="79.41" as="sourcePoint" />
            <mxPoint x="600" y="79.41" as="targetPoint" />
          </mxGeometry>
        </mxCell>
        <mxCell id="paTJHKrVfdt6l4FZ6ix--31" value="`" style="endArrow=classic;html=1;entryX=0;entryY=0.5;entryDx=0;entryDy=0;" parent="1" edge="1">
          <mxGeometry width="50" height="50" relative="1" as="geometry">
            <mxPoint x="560" y="279.40999999999997" as="sourcePoint" />
            <mxPoint x="600" y="279.40999999999997" as="targetPoint" />
          </mxGeometry>
        </mxCell>
        <mxCell id="paTJHKrVfdt6l4FZ6ix--32" value="`" style="endArrow=classic;html=1;entryX=0;entryY=0.5;entryDx=0;entryDy=0;" parent="1" edge="1">
          <mxGeometry width="50" height="50" relative="1" as="geometry">
            <mxPoint x="680" y="700" as="sourcePoint" />
            <mxPoint x="720" y="700" as="targetPoint" />
          </mxGeometry>
        </mxCell>
        <mxCell id="paTJHKrVfdt6l4FZ6ix--33" value="`" style="endArrow=classic;html=1;entryX=0;entryY=0.25;entryDx=0;entryDy=0;exitX=1;exitY=0.25;exitDx=0;exitDy=0;" parent="1" source="paTJHKrVfdt6l4FZ6ix--9" target="paTJHKrVfdt6l4FZ6ix--10" edge="1">
          <mxGeometry width="50" height="50" relative="1" as="geometry">
            <mxPoint x="240" y="279.40999999999997" as="sourcePoint" />
            <mxPoint x="280" y="279.40999999999997" as="targetPoint" />
          </mxGeometry>
        </mxCell>
        <mxCell id="paTJHKrVfdt6l4FZ6ix--34" value="`" style="endArrow=classic;html=1;entryX=0;entryY=0.5;entryDx=0;entryDy=0;" parent="1" edge="1">
          <mxGeometry width="50" height="50" relative="1" as="geometry">
            <mxPoint x="400" y="279.40999999999985" as="sourcePoint" />
            <mxPoint x="480" y="280" as="targetPoint" />
          </mxGeometry>
        </mxCell>
        <mxCell id="paTJHKrVfdt6l4FZ6ix--35" value="`" style="endArrow=classic;html=1;entryX=0;entryY=0.5;entryDx=0;entryDy=0;" parent="1" edge="1">
          <mxGeometry width="50" height="50" relative="1" as="geometry">
            <mxPoint x="400" y="399.40999999999985" as="sourcePoint" />
            <mxPoint x="480" y="400" as="targetPoint" />
          </mxGeometry>
        </mxCell>
        <mxCell id="paTJHKrVfdt6l4FZ6ix--36" value="`" style="endArrow=classic;html=1;entryX=0;entryY=0.5;entryDx=0;entryDy=0;" parent="1" edge="1">
          <mxGeometry width="50" height="50" relative="1" as="geometry">
            <mxPoint x="400" y="79.40999999999985" as="sourcePoint" />
            <mxPoint x="480" y="80" as="targetPoint" />
          </mxGeometry>
        </mxCell>
        <mxCell id="paTJHKrVfdt6l4FZ6ix--37" value="`" style="endArrow=classic;html=1;entryX=0;entryY=0.5;entryDx=0;entryDy=0;" parent="1" edge="1">
          <mxGeometry width="50" height="50" relative="1" as="geometry">
            <mxPoint x="800" y="79.40999999999985" as="sourcePoint" />
            <mxPoint x="880" y="80" as="targetPoint" />
          </mxGeometry>
        </mxCell>
        <mxCell id="paTJHKrVfdt6l4FZ6ix--38" value="`" style="endArrow=classic;html=1;entryX=0;entryY=0.5;entryDx=0;entryDy=0;" parent="1" edge="1">
          <mxGeometry width="50" height="50" relative="1" as="geometry">
            <mxPoint x="800" y="279.40999999999985" as="sourcePoint" />
            <mxPoint x="880" y="280" as="targetPoint" />
          </mxGeometry>
        </mxCell>
        <mxCell id="paTJHKrVfdt6l4FZ6ix--39" value="`" style="endArrow=classic;html=1;entryX=0;entryY=0.5;entryDx=0;entryDy=0;" parent="1" edge="1">
          <mxGeometry width="50" height="50" relative="1" as="geometry">
            <mxPoint x="160" y="619.9999999999999" as="sourcePoint" />
            <mxPoint x="240" y="620.59" as="targetPoint" />
          </mxGeometry>
        </mxCell>
        <mxCell id="paTJHKrVfdt6l4FZ6ix--40" value="`" style="endArrow=classic;html=1;entryX=0;entryY=0.5;entryDx=0;entryDy=0;" parent="1" edge="1">
          <mxGeometry width="50" height="50" relative="1" as="geometry">
            <mxPoint x="320" y="619.9999999999999" as="sourcePoint" />
            <mxPoint x="400" y="620.59" as="targetPoint" />
          </mxGeometry>
        </mxCell>
        <mxCell id="paTJHKrVfdt6l4FZ6ix--41" value="`" style="endArrow=classic;html=1;entryX=0;entryY=0.5;entryDx=0;entryDy=0;" parent="1" edge="1">
          <mxGeometry width="50" height="50" relative="1" as="geometry">
            <mxPoint x="670" y="279.82" as="sourcePoint" />
            <mxPoint x="720" y="279.40999999999997" as="targetPoint" />
          </mxGeometry>
        </mxCell>
        <mxCell id="paTJHKrVfdt6l4FZ6ix--42" value="`" style="endArrow=classic;html=1;entryX=0;entryY=0.5;entryDx=0;entryDy=0;" parent="1" edge="1">
          <mxGeometry width="50" height="50" relative="1" as="geometry">
            <mxPoint x="670" y="79.81999999999994" as="sourcePoint" />
            <mxPoint x="720" y="79.40999999999985" as="targetPoint" />
          </mxGeometry>
        </mxCell>
        <mxCell id="paTJHKrVfdt6l4FZ6ix--43" value="`" style="endArrow=classic;html=1;entryX=0;entryY=0.5;entryDx=0;entryDy=0;exitX=1;exitY=0.25;exitDx=0;exitDy=0;" parent="1" target="paTJHKrVfdt6l4FZ6ix--16" edge="1">
          <mxGeometry x="-0.3659" y="19" width="50" height="50" relative="1" as="geometry">
            <mxPoint x="240" y="300" as="sourcePoint" />
            <mxPoint x="320" y="300" as="targetPoint" />
            <Array as="points">
              <mxPoint x="280" y="300" />
              <mxPoint x="280" y="400" />
            </Array>
            <mxPoint x="-1" as="offset" />
          </mxGeometry>
        </mxCell>
        <mxCell id="paTJHKrVfdt6l4FZ6ix--44" value="`" style="endArrow=classic;html=1;entryX=0;entryY=0.5;entryDx=0;entryDy=0;" parent="1" edge="1">
          <mxGeometry width="50" height="50" relative="1" as="geometry">
            <mxPoint x="270" y="79.81999999999994" as="sourcePoint" />
            <mxPoint x="320" y="79.40999999999985" as="targetPoint" />
          </mxGeometry>
        </mxCell>
        <mxCell id="weF5eFfAUtp39m-wOyLp-1" value="`" style="endArrow=classic;html=1;" edge="1" parent="1">
          <mxGeometry width="50" height="50" relative="1" as="geometry">
            <mxPoint x="480" y="619.9999999999999" as="sourcePoint" />
            <mxPoint x="1040" y="620.59" as="targetPoint" />
          </mxGeometry>
        </mxCell>
        <mxCell id="weF5eFfAUtp39m-wOyLp-2" value="`" style="endArrow=classic;html=1;entryX=0;entryY=0.25;entryDx=0;entryDy=0;" edge="1" parent="1" target="paTJHKrVfdt6l4FZ6ix--23">
          <mxGeometry width="50" height="50" relative="1" as="geometry">
            <mxPoint x="480" y="639.9999999999999" as="sourcePoint" />
            <mxPoint x="600" y="700.59" as="targetPoint" />
            <Array as="points">
              <mxPoint x="540" y="639.59" />
              <mxPoint x="540" y="681" />
            </Array>
          </mxGeometry>
        </mxCell>
        <mxCell id="weF5eFfAUtp39m-wOyLp-3" value="`" style="endArrow=classic;html=1;entryX=0;entryY=0.5;entryDx=0;entryDy=0;entryPerimeter=0;" edge="1" parent="1">
          <mxGeometry width="50" height="50" relative="1" as="geometry">
            <mxPoint x="480" y="600.5899999999999" as="sourcePoint" />
            <mxPoint x="600" y="540.59" as="targetPoint" />
            <Array as="points">
              <mxPoint x="540" y="600.59" />
              <mxPoint x="540" y="540.59" />
            </Array>
          </mxGeometry>
        </mxCell>
        <mxCell id="weF5eFfAUtp39m-wOyLp-4" value="`" style="endArrow=classic;html=1;" edge="1" parent="1">
          <mxGeometry width="50" height="50" relative="1" as="geometry">
            <mxPoint x="680" y="539.9999999999999" as="sourcePoint" />
            <mxPoint x="1040" y="540.59" as="targetPoint" />
          </mxGeometry>
        </mxCell>
        <mxCell id="weF5eFfAUtp39m-wOyLp-5" value="`" style="endArrow=classic;html=1;" edge="1" parent="1">
          <mxGeometry width="50" height="50" relative="1" as="geometry">
            <mxPoint x="790" y="699.9999999999999" as="sourcePoint" />
            <mxPoint x="1040" y="700.59" as="targetPoint" />
          </mxGeometry>
        </mxCell>
        <mxCell id="weF5eFfAUtp39m-wOyLp-6" value="`" style="endArrow=classic;html=1;" edge="1" parent="1">
          <mxGeometry width="50" height="50" relative="1" as="geometry">
            <mxPoint x="160" y="759.4099999999999" as="sourcePoint" />
            <mxPoint x="1040" y="760" as="targetPoint" />
          </mxGeometry>
        </mxCell>
        <mxCell id="weF5eFfAUtp39m-wOyLp-7" value="`" style="endArrow=classic;html=1;entryX=0;entryY=0.5;entryDx=0;entryDy=0;" edge="1" parent="1">
          <mxGeometry width="50" height="50" relative="1" as="geometry">
            <mxPoint x="959.9999999999995" y="279.40999999999985" as="sourcePoint" />
            <mxPoint x="1039.9999999999995" y="280" as="targetPoint" />
          </mxGeometry>
        </mxCell>
        <mxCell id="weF5eFfAUtp39m-wOyLp-8" value="`" style="endArrow=classic;html=1;entryX=0;entryY=0.5;entryDx=0;entryDy=0;" edge="1" parent="1">
          <mxGeometry width="50" height="50" relative="1" as="geometry">
            <mxPoint x="959.9999999999995" y="79.40999999999985" as="sourcePoint" />
            <mxPoint x="1039.9999999999995" y="80" as="targetPoint" />
          </mxGeometry>
        </mxCell>
        <mxCell id="weF5eFfAUtp39m-wOyLp-9" value="`" style="endArrow=classic;html=1;entryX=0.5;entryY=1;entryDx=0;entryDy=0;exitX=0.5;exitY=0;exitDx=0;exitDy=0;" edge="1" parent="1" source="paTJHKrVfdt6l4FZ6ix--8" target="paTJHKrVfdt6l4FZ6ix--4">
          <mxGeometry x="-1" y="-10" width="50" height="50" relative="1" as="geometry">
            <mxPoint x="770" y="250" as="sourcePoint" />
            <mxPoint x="839.9999999999995" y="160.59" as="targetPoint" />
            <mxPoint x="-10" y="10" as="offset" />
          </mxGeometry>
        </mxCell>
        <mxCell id="weF5eFfAUtp39m-wOyLp-11" value="" style="endArrow=classic;startArrow=classic;html=1;exitX=0.5;exitY=0;exitDx=0;exitDy=0;" edge="1" parent="1" source="paTJHKrVfdt6l4FZ6ix--19">
          <mxGeometry width="50" height="50" relative="1" as="geometry">
            <mxPoint x="550" y="440" as="sourcePoint" />
            <mxPoint x="1040" y="470" as="targetPoint" />
            <Array as="points">
              <mxPoint x="280" y="480" />
            </Array>
          </mxGeometry>
        </mxCell>
        <mxCell id="weF5eFfAUtp39m-wOyLp-12" value="`" style="endArrow=classic;html=1;exitX=1;exitY=0.5;exitDx=0;exitDy=0;" edge="1" parent="1" source="paTJHKrVfdt6l4FZ6ix--17">
          <mxGeometry width="50" height="50" relative="1" as="geometry">
            <mxPoint x="585" y="399.40999999999985" as="sourcePoint" />
            <mxPoint x="1040" y="400" as="targetPoint" />
          </mxGeometry>
        </mxCell>
        <mxCell id="weF5eFfAUtp39m-wOyLp-13" value="`" style="endArrow=classic;html=1;entryX=0;entryY=0.75;entryDx=0;entryDy=0;" edge="1" parent="1" target="paTJHKrVfdt6l4FZ6ix--23">
          <mxGeometry width="50" height="50" relative="1" as="geometry">
            <mxPoint x="40" y="701" as="sourcePoint" />
            <mxPoint x="584.9999999999995" y="700.5900000000001" as="targetPoint" />
            <Array as="points">
              <mxPoint x="540" y="701" />
              <mxPoint x="540" y="721" />
            </Array>
          </mxGeometry>
        </mxCell>
      </root>
    </mxGraphModel>
  </diagram>
</mxfile>
